<svg width="291" height="458" viewBox="0 0 291 458" fill="none" xmlns="http://www.w3.org/2000/svg">
<rect x="85.4541" y="88.1773" width="119.007" height="109.93" rx="6" fill="#EFEFEF"/>
<circle cx="96.003" cy="74.003" r="49.003" fill="#EFEFEF"/>
<circle cx="145.003" cy="49.003" r="49.003" fill="#EFEFEF"/>
<circle cx="194.003" cy="74.003" r="49.003" fill="#EFEFEF"/>
<line x1="146" y1="40" x2="146" y2="72.8389" stroke="black" stroke-width="2" stroke-linecap="round"/>
<line x1="84.4142" y1="62" x2="107.635" y2="85.2206" stroke="black" stroke-width="2" stroke-linecap="round"/>
<line x1="206.635" y1="63.4142" x2="183.414" y2="86.6348" stroke="black" stroke-width="2" stroke-linecap="round"/>
<line x1="85" y1="124" x2="204.033" y2="124" stroke="black" stroke-width="2"/>
<circle cx="145.162" cy="297.322" r="145.162" fill="#D9D9D9"/>
<path d="M127.743 353.325C127.743 375.773 96.4807 453.487 74.0329 453.487C51.585 453.487 5.80664 357.512 5.80664 335.064C5.80664 312.617 24.0042 294.419 46.4521 294.419C68.8999 294.419 127.743 330.877 127.743 353.325Z" fill="#D9D9D9"/>
<path d="M162.581 354.166C162.581 376.614 193.844 454.328 216.291 454.328C238.739 454.328 284.518 358.353 284.518 335.905C284.518 313.458 266.32 295.26 243.872 295.26C221.424 295.26 162.581 331.718 162.581 354.166Z" fill="#D9D9D9"/>
<path d="M223.55 258.129C223.55 281.378 209.252 300.226 191.614 300.226C173.977 300.226 159.679 281.378 159.679 258.129C159.679 234.879 173.977 216.031 191.614 216.031C209.252 216.031 223.55 234.879 223.55 258.129Z" fill="#020000"/>
<path d="M130.646 258.129C130.646 281.378 116.348 300.226 98.7101 300.226C81.0725 300.226 66.7744 281.378 66.7744 258.129C66.7744 234.879 81.0725 216.031 98.7101 216.031C116.348 216.031 130.646 234.879 130.646 258.129Z" fill="#020000"/>
<path d="M255.485 370.744C255.485 393.192 169.062 457.231 146.614 457.231C124.166 457.231 34.8389 396.096 34.8389 373.648C34.8389 351.2 124.166 330.099 146.614 330.099C169.062 330.099 255.485 348.297 255.485 370.744Z" fill="#D9D9D9"/>
</svg>
